<svg width="1132" height="233" viewBox="0 0 1132 233" fill="none" xmlns="http://www.w3.org/2000/svg">
<g clip-path="url(#clip0_223_632)">
<path d="M-166.839 124.277C-108.971 39.2538 0.594803 56.5225 48.1443 75.7847C130.985 109.344 188.368 275.816 177.053 322.288C165.738 368.759 85.7259 443.518 -46.8199 454.833C-179.366 466.148 -187.044 392.601 -147.442 344.917C-107.84 297.233 -239.173 230.556 -166.839 124.277Z" fill="#D9D9D9" fill-opacity="0.32"/>
<path d="M261.161 84.2771C319.029 -0.746204 428.595 16.5225 476.144 35.7847C558.985 69.3436 616.368 235.816 605.053 282.288C593.738 328.759 513.726 403.518 381.18 414.833C248.634 426.148 240.956 352.601 280.558 304.917C320.16 257.233 188.827 190.556 261.161 84.2771Z" fill="#D9D9D9" fill-opacity="0.32"/>
<path d="M605.161 68.2771C663.029 -16.7462 772.595 0.522465 820.144 19.7847C902.985 53.3436 960.368 219.816 949.053 266.288C937.738 312.759 857.726 387.518 725.18 398.833C592.634 410.148 584.956 336.602 624.558 288.917C664.16 241.233 532.827 174.556 605.161 68.2771Z" fill="#D9D9D9" fill-opacity="0.32"/>
<path d="M966.161 145.277C1024.03 60.2538 1133.59 77.5225 1181.14 96.7847C1263.99 130.344 1321.37 296.816 1310.05 343.288C1298.74 389.759 1218.73 464.518 1086.18 475.833C953.634 487.148 945.956 413.601 985.558 365.917C1025.16 318.233 893.827 251.556 966.161 145.277Z" fill="#D9D9D9" fill-opacity="0.32"/>
<path d="M464.543 46.4664V43.2702H441.907V46.4664H410.16V233.743H471.167V46.4664H464.543Z" fill="#131313"/>
<path d="M534.755 53.8742V51.642H458.347V53.8742H455.62V233.669H537.483V53.8742H534.755Z" fill="#FFBE7C"/>
<path d="M203.753 62.8071V59.9995H181.116V62.8071H149.37V236.07H210.379V62.8071H203.753Z" fill="#131313"/>
<path d="M650.296 68.7979V64.8677H636.645V59.9995H585.474V68.7979H583.168V235.432H661.705V68.7979H650.296Z" fill="#131313"/>
<path d="M143.006 109.917H139.655V107.168H82.0105V109.917H78.6602V175.338H75.3099V137.026H72.628V134.914H38.1076V137.026H35.4277V212.681H34.2538V235.908H38.1076H72.628L101.789 235.423L118.037 235.378H143.006V109.917Z" fill="#131313"/>
<path d="M153.37 129.672V137.693H142.013V132.03H141.495V125.553H140.914V132.03H140.394V137.693H138.341V134.861H137.759V137.693H123.423V135.135H122.906V130.742H122.324V135.135H121.806V137.693H93.8976V134.494H92.6041V129.902H90.9867V134.494H89.6911V137.693H85.9385V232.72H160.49V142.726V137.693V129.672H153.37Z" fill="#FFBE7C"/>
<path d="M101.78 230.073H98.9499V161.172H91.8717V160.705H85.1917V161.172H51.9958V163.914H44.7154V230.073H39.4568V234.214H44.7154V234.392H51.9958H91.6613H98.9499V234.214H101.78V230.073Z" fill="#A16529"/>
<path d="M1044.58 112.464V111.235H1007.67V112.464H999.886V175.781H986.126V112.464H983.075V111.235H946.17V112.464H938.373V233.263H971.293H986.126H999.886H1047.63V175.781V112.464H1044.58Z" fill="#131313"/>
<path d="M905.116 73.7617V66.7374H877.209V73.7617H859.065V230.603H923.264V73.7617H905.116Z" fill="#131313"/>
<path d="M1094.42 214.452H1065.24V152.119H1064.58V153.14H1064.16V152.119H1064.15H1063.58H1063H1062.37H1061.73H1061.15H1059.88H1059.3H1058.03H1057.46H1056.18H1055.61H1054.33H1053.75H1052.48H1051.91H1050.64H1050.06H1048.79H1048.21H1046.94H1046.36H1045.08H1044.51H1043.23H1042.66H1041.39H1040.81H1039.54H1038.96H1037.68H1037.1H1035.84H1035.26H1033.99H1033.41H1032.14H1031.56H1030.92H1030.29H1029.71H1028.44H1027.86H1026.59H1026.01H1025.43V153.14H1025.02V152.119L1024.35 152.132V236.168L1025.02 234.019H1025.43H1026.01H1026.59H1027.86H1028.44H1029.61H1029.71H1030H1030.29H1031.56H1032.14H1033.41H1033.99H1035.26H1035.84H1037.1H1037.68H1038.96H1039.54H1040.81H1041.39H1042.66H1043.23H1044.51H1045.08H1046.36H1046.94H1048.21H1048.79H1050.06H1050.64H1051.91H1052.48H1053.75H1054.33H1055.61H1056.18H1057.46H1058.03H1059.22H1059.3H1059.59H1059.88H1061.15H1061.73H1062.13H1063H1063.58H1064.15H1064.16H1064.73H1095.93V233.975V216.012V214.481V214.452H1094.42Z" fill="#A16529"/>
<path d="M290.845 152.508V149.8V149.718H289.741V127.42H291.004V127.335H291.006V125.221L291.004 125.218V122.396H290.459L289.772 121.412L290.909 118.661L290.521 118.059V116.82L289.958 114.944V112.192L289.312 111.122C289.312 111.122 289.836 111.122 289.896 110.551C289.946 110.095 289.857 109.285 289.649 108.905H290.028L290.521 108.097V107.422H291.004V105.175V102.775H292.011L292.813 100.402H268.856V94.7195V91.6384H233.619L233.611 91.621C233.483 91.3604 233.289 91.1411 233.048 90.9935L232.934 90.9197L232.466 89.1413L231.975 88.0557H232.324V85.7757L231.631 84.5489C231.496 84.1016 230.933 83.9062 230.562 83.6955C230.044 83.3981 229.173 82.9768 228.899 83.0376C228.899 83.0376 228.544 82.9312 228.307 82.3971C228.282 82.3385 228.237 82.269 228.177 82.1908C228.086 82.0714 227.95 82.0106 227.839 81.9151L227.901 81.8955C227.901 81.8955 227.703 81.724 227.41 81.5676C227.405 81.5655 227.401 81.5633 227.399 81.5611C227.214 81.4656 226.999 81.3744 226.747 81.3418C226.087 81.2615 225.186 81.3418 225.186 81.3418H218.768L205.469 85.7757V88.0557H206.765V89.847H178.403C177.446 89.847 176.678 90.6439 176.633 91.6384H175.108C175.063 90.6439 174.295 89.847 173.34 89.847H161.119V91.7274H162.076V93.6078V95.7922H160.157V100.817H161.208C161.175 100.925 161.131 101.032 161.131 101.147C161.131 101.75 161.571 102.248 162.175 102.434V103.828H161.709V104.862H162.107V105.895H162.175V145.705H161.521V146.836H156.093V149.8H153.151V152.764H149.89V155.726H196.646H208.141L249.135 155.73V155.737H251.462V155.73H252.523H257.082H259.011V155.737V155.745H261.338V155.737H266.958V155.724H268.693V155.728H274.642H290.843H293.067V155.646V152.588V152.506H290.845V152.508ZM170.421 145.707V105.898H170.489V104.864H170.887V103.831H170.421V102.367C170.908 102.137 171.244 101.677 171.244 101.149C171.244 101.032 171.201 100.927 171.168 100.819H178.673C178.642 100.927 178.599 101.034 178.599 101.149C178.599 101.753 179.04 102.252 179.645 102.437V103.831H179.178V104.864H179.575V105.898H179.645V145.707H178.989V146.839H170.968V145.707H170.421ZM188.076 145.707V105.898H188.146V104.864H188.542V103.831H188.076V102.367C188.565 102.137 188.899 101.677 188.899 101.149C188.899 101.032 188.856 100.927 188.825 100.819H197.585V145.707H196.646V146.839H188.625V145.707H188.076ZM251.462 116.387H247.221V104.441H251.462V116.387ZM229.386 116.387H226.902L225.142 114.303V104.441H229.386V116.387ZM240.425 116.387H236.182V104.441H240.425V116.387ZM253.404 95.9398V96.893H253.133V97.5987H253.364V98.3066H253.406V102.549H253.311V102.499H252.832H251.466H247.225H246.818V97.6009H247.089V96.8952H246.818V95.8899C247.101 95.7314 247.297 95.4209 247.297 95.0604C247.297 94.941 247.272 94.8281 247.233 94.7217H252.865C252.828 94.8281 252.801 94.941 252.801 95.0604C252.795 95.4687 253.051 95.8117 253.404 95.9398ZM242.272 95.9398V96.893H242.001V97.5987H242.232V98.3066H242.272V102.499H241.791H240.425H236.182H235.874V97.6009H236.146V96.8952H235.874V95.8899C236.159 95.7314 236.353 95.4209 236.353 95.0604C236.353 94.941 236.326 94.8281 236.289 94.7217H241.727C241.69 94.8281 241.663 94.941 241.663 95.0604C241.663 95.4708 241.921 95.8117 242.272 95.9398ZM277.885 108.905H278.5C278.5 108.905 278.224 109.161 278.24 109.613C278.246 109.806 278.145 110.243 278.026 110.677L278.009 110.659C277.856 111.213 277.685 111.743 277.685 111.743V111.825V111.828V119.165C277.685 119.165 278.083 119.768 278.092 120.337C278.096 120.797 278.094 121.901 278.092 122.313H270.553V108.855H270.675L271.166 108.049V107.971L271.168 107.969V107.424H277.392V108.099L277.885 108.905ZM287.592 108.905H288.207C288.207 108.905 287.93 109.161 287.947 109.613C287.961 110.064 287.394 111.828 287.394 111.828V119.165C287.394 119.165 287.794 119.768 287.8 120.337C287.806 120.797 287.802 121.901 287.802 122.313H280.755L280.091 121.358L281.205 118.661L281.186 118.63L281.207 118.578L280.817 117.977V116.735L280.254 114.857V113.17V112.192L279.608 111.122C279.608 111.122 280.13 111.122 280.192 110.551C280.241 110.095 280.153 109.285 279.946 108.905H280.326L280.817 108.097V107.422H287.105V108.097L287.592 108.905ZM263.991 120.88H259.242V123.759H258.14V97.5987H258.408V96.893H258.14V95.8877C258.423 95.7292 258.617 95.4187 258.617 95.0583C258.617 94.9388 258.59 94.8259 258.553 94.7195H263.991V120.88Z" fill="#FAA24A"/>
<path d="M792.39 195.746H776.274V44.3161H675.931V195.746H659.815V228.371H666.503V235.465H675.931H776.274H785.698V228.371H792.39V195.746Z" fill="#131313"/>
<path d="M886.573 93.8228H827.825V86.729H762.108V93.8228H703.359V214.811H708.5V233.73H881.43V214.811H886.573V93.8228Z" fill="#FFBE7C"/>
<path d="M767.781 227.509C767.748 226.792 767.197 226.217 766.508 226.217H767.496V224.862H766.743L766.98 187.163L766.747 150.45V149.316H767.496V147.963H766.122V147.579C766.714 147.334 767.137 146.734 767.137 146.024C767.137 146.024 767.987 144.344 767.535 144.344C767.302 144.344 766.943 144.398 766.539 144.496V143.36H766.547V142.227H766.539V141.554H766.12H757.88H757.462V142.227V143.36V144.496C757.055 144.4 756.696 144.344 756.463 144.344C756.011 144.344 756.861 146.024 756.861 146.024C756.861 146.734 757.284 147.334 757.88 147.579V147.963H756.502V149.316H757.263V149.347L757.022 187.163L757.263 224.862H756.502V226.217H757.493C756.803 226.217 756.248 226.792 756.22 227.509H755.7V234.433H768.299V227.509H767.781Z" fill="#A16529"/>
<path d="M786.197 227.509C786.164 226.792 785.613 226.217 784.924 226.217H785.913V224.862H785.16L785.397 187.163L785.164 150.45V149.316H785.913V147.963H784.539V147.579C785.131 147.334 785.554 146.734 785.554 146.024C785.554 146.024 786.404 144.344 785.952 144.344C785.723 144.344 785.36 144.398 784.957 144.496V143.36H784.966V142.227H784.957V141.554H784.539H776.299H775.884V142.227V143.36V144.496C775.482 144.4 775.119 144.344 774.886 144.344C774.434 144.344 775.284 146.024 775.284 146.024C775.284 146.734 775.707 147.334 776.299 147.579V147.963H774.925V149.316H775.682V149.347L775.445 187.163L775.682 224.862H774.925V226.217H775.911C775.222 226.217 774.669 226.792 774.638 227.509H774.118V234.433H786.721V227.509H786.197Z" fill="#A16529"/>
<path d="M963.02 163.725V162.496H962.492V155.667H963.02V154.434H961.446H959.138H957.182H954.873H952.916H950.607H948.649H946.339H944.381H942.072H940.119H937.81H935.85H933.542H931.584H929.276H927.318H926.858L897.769 144.161L868.679 154.434H867.422H865.104H863.15H860.841H858.884H856.571H854.617H852.307H832.692V155.667H833.228V162.496H832.692V163.725H830.03V164.959V166.418V169.104H833.228V171.229V173.357V222.986H830.936V225.813H830.03V234.937H833.228H857.73H858.512H859.302H859.802H860.266H860.765H861.167H861.671H862.102H862.603H862.937H862.946H863.445H864.311H872.405H873.195H873.7H874.158H874.661H875.066H875.565H875.996H876.5H876.834H877.337H877.721H878.199H880.211H883.31H887.749H888.543H888.942H889.043H889.503H890.006H890.408H890.904H891.339H891.842H892.178H892.682H893.072H893.544H895.558H903.1H903.89H904.295H904.394H904.854H905.361H905.757H906.265H906.692H907.195H907.534H908.037H908.427H908.895H915.321H917.325V234.965H918.111H918.614H919.074H919.573H919.976H920.479H920.91H921.413H921.748H922.257H923.115V234.937H931.262H932.048H932.556H933.014H933.519H933.917H934.421H934.852H935.355H935.689H936.189H937.051H937.806H962.492H965.506V225.813H964.605V222.986H962.492V222.369V173.357V171.229V169.104H965.688V166.418V164.959V163.725H963.02Z" fill="#A16529"/>
<path d="M634.752 226.768C634.719 225.976 634.168 225.344 633.479 225.344H634.465V223.846H633.712L633.945 182.121L633.716 141.488V140.233H634.465V138.739H633.091V138.31C633.683 138.04 634.106 137.376 634.106 136.59C634.106 136.59 634.956 134.733 634.5 134.733C634.271 134.733 633.912 134.792 633.51 134.898V133.639H633.514V132.386H633.51V131.643H633.091H624.851H624.428V132.386V133.639V134.898C624.03 134.792 623.671 134.733 623.434 134.733C622.982 134.733 623.836 136.59 623.836 136.59C623.836 137.376 624.259 138.04 624.851 138.31V138.739H623.477V140.233H624.23V140.27L623.989 182.121L624.23 223.846H623.477V225.344H624.461C623.776 225.344 623.219 225.976 623.188 226.768H622.668V234.431H635.271V226.768H634.752Z" fill="#A16529"/>
<path d="M372.677 151.474C372.658 151.058 372.338 150.728 371.94 150.728H372.512V149.944H372.072L372.21 128.059L372.074 106.749V106.093H372.509V105.307H371.711V105.086C372.056 104.942 372.303 104.593 372.303 104.182C372.303 104.182 372.794 103.207 372.532 103.207C372.398 103.207 372.188 103.24 371.955 103.294V102.634H371.957V101.976H371.955V101.585H371.711H366.929H366.686V101.976V102.634V103.294C366.452 103.24 366.242 103.207 366.108 103.207C365.846 103.207 366.339 104.182 366.339 104.182C366.339 104.593 366.585 104.942 366.929 105.086V105.307H366.133V106.093H366.57V106.11L366.432 128.059L366.57 149.944H366.133V150.728H366.704C366.304 150.728 365.982 151.058 365.966 151.474H365.662V155.491H372.978V151.474H372.677Z" fill="#422508"/>
<path d="M307.184 151.474C307.166 151.058 306.846 150.728 306.446 150.728H307.019V149.944H306.58L306.718 128.059L306.584 106.749V106.093H307.019V105.307H306.219V105.086C306.563 104.942 306.809 104.593 306.809 104.182C306.809 104.182 307.302 103.207 307.04 103.207C306.906 103.207 306.695 103.24 306.462 103.294V102.634H306.466V101.976H306.462V101.585H306.219H301.439H301.197V101.976V102.634V103.294C300.962 103.24 300.752 103.207 300.618 103.207C300.356 103.207 300.849 104.182 300.849 104.182C300.849 104.593 301.096 104.942 301.439 105.086V105.307H300.642V106.093H301.08V106.11L300.94 128.059L301.08 149.944H300.642V150.728H301.214C300.814 150.728 300.494 151.058 300.475 151.474H300.174V155.491H307.49V151.474H307.184Z" fill="#422508"/>
<path d="M147.552 151.474C147.532 151.058 147.212 150.728 146.814 150.728H147.385V149.944H146.946L147.084 128.059L146.948 106.749V106.093H147.383V105.307H146.585V105.086C146.929 104.942 147.175 104.593 147.175 104.182C147.175 104.182 147.666 103.207 147.404 103.207C147.27 103.207 147.061 103.24 146.826 103.294V102.634H146.83V101.976H146.826V101.585H146.583H141.801H141.557V101.976V102.634V103.294C141.324 103.24 141.114 103.207 140.98 103.207C140.718 103.207 141.211 104.182 141.211 104.182C141.211 104.593 141.456 104.942 141.801 105.086V105.307H141.002V106.093H141.44V106.11L141.302 128.059L141.44 149.944H141.002V150.728H141.574C141.174 150.728 140.854 151.058 140.835 151.474H140.534V155.491H147.85V151.474H147.552Z" fill="#422508"/>
<path d="M739.419 207.583H739.373V140.961H687.008H634.648V207.583V216.811H620.504V207.794V26.4737H591.888V24.3914H587.29V22.878H585.559V21.5056H583.907V20.978V19.5015V17.5994V17.0783H583.451V15.7277V13.8277V11.7563V9.85416H583.209V7.90211V6H582.073V7.90211V9.85416H581.827V11.7563V13.8277V15.7277V17.0783H581.371V17.5994V19.5015V20.978V21.5056H579.721V22.878H577.984V24.3914H573.385V26.4737H544.775V223.539H550.376H550.409V223.545H554.484V223.539H568.354H573.385H573.414V223.545H577.491V223.539H591.888H596.924H596.928V223.545H601.003V223.539H614.903V223.749H620.504V223.539H634.648H639.977V223.543V223.56H644.052V223.543H653.9V223.749H657.973V223.543H671.696V223.749H675.775V223.543H681.677V223.539H687.008H692.343V223.543H706.284H710.359H724.082H728.157H734.042V223.539H739.373V223.534H739.419V207.583Z" fill="#A16529"/>
<path d="M518.779 152.217V149.427H515.553V146.639H509.572L509.063 106.108H509.743V101.39H510.067V94.9584H507.775V90.7764V88.4009V88.3097H510.067V85.5217H507.775L484.713 77.8351H473.581H472.335C473.234 78.8795 475.603 81.6654 475.326 81.6784C474.986 81.6958 471.184 81.1616 469.065 79.6069C467.835 78.7036 467.404 80.0759 467.26 79.7654C466.95 79.7654 466.643 79.8349 466.358 79.9674C465.015 80.5862 462.471 80.736 461.879 81.3071C461.062 82.0931 452.167 81.2354 450.197 80.8077C448.226 80.3799 448.226 81.0943 447.277 81.3809C446.326 81.6675 444.697 82.0236 443.638 82.8813C442.582 83.739 439.671 82.0931 439.646 82.0237C439.624 81.9542 437.701 80.5949 437.565 80.3083C437.511 80.191 437.014 80.0499 436.447 79.9239C435.446 79.7025 434.454 80.3408 434.19 81.3787C434.19 81.3787 433.286 80.5927 432.88 79.6634C432.836 79.5613 432.756 79.4398 432.651 79.3051C432.504 79.1162 432.331 78.9555 432.155 78.8014L432.174 78.7949C432.174 78.7949 431.836 78.4995 431.33 78.2325C431.32 78.226 431.308 78.2194 431.295 78.2151C430.975 78.0479 430.606 77.8937 430.171 77.8416C429.026 77.7026 427.458 77.8416 427.458 77.8416H416.326L393.266 85.5282H390.974V88.3162H393.266V88.4074H393.167V90.7829H393.266V94.9649H390.974V101.396H393.266V106.115H393.944L393.435 146.645H385.484V149.433H382.259V152.224H379.089V155.012H521.952V152.224H518.779V152.217ZM402.811 106.108H403.492V101.39H408.726V106.108H409.407L408.897 146.639H403.323L402.811 106.108ZM418.092 106.108H418.773V101.39H424.184V106.108H424.865L424.355 146.639H418.604L418.092 106.108ZM433.577 106.108H434.258V101.39H439.646V106.108H440.327L439.818 146.639H434.088L433.577 106.108ZM448.858 106.108H449.538V101.39H455.106V106.108H455.785L455.276 146.639H449.369L448.858 106.108ZM464.345 106.108H465.023V101.39H470.362V106.108H471.041L470.53 146.639H464.852L464.345 106.108ZM479.625 106.108H480.304V101.39H485.212V106.108H485.891L485.379 146.639H480.133L479.625 106.108ZM494.562 106.108H495.242V101.39H499.787V106.108H500.468L499.958 146.639H495.073L494.562 106.108Z" fill="#FAA24A"/>
<path d="M188 235.245C186.232 196.33 155.774 165.354 118.381 165.354C81.0037 165.354 50.5557 196.33 48.796 235.245H188Z" fill="#FAA24A"/>
<path d="M774.618 233.371C773.011 198.074 745.389 169.983 711.475 169.983C677.576 169.983 649.96 198.076 648.363 233.371H774.618Z" fill="#FFBE7C"/>
<path d="M1088.8 235.085C1087.62 209.044 1067.24 188.316 1042.22 188.316C1017.21 188.316 996.835 209.044 995.659 235.085H1088.8Z" fill="#FAA24A"/>
<path d="M746.474 208.963C746.474 208.963 757.647 219.134 758.699 220.964C759.752 222.793 757.228 221.512 757.228 221.512C757.228 221.512 761.012 231.133 761.012 234.008H780.703C780.703 234.008 772.266 225.159 770.888 223.8C768.841 221.783 763.655 219.429 763.655 219.429C763.655 219.429 750.728 210.299 746.474 208.963Z" fill="#D8A66A"/>
<path d="M656.886 235.632C656.886 235.632 650.096 226.686 643.878 223.98C637.656 221.273 630.097 211.986 617.756 212.609C614.899 212.75 602.686 216.311 594.061 218.917C593.993 218.936 593.924 218.956 593.854 218.975V184.916L589.737 173.783V158.935H590.857V156.781H589.737V154.304H108.38V156.781H107.26V158.935H108.38V221.383C107.662 221.399 106.919 221.416 106.162 221.427C104.103 221.44 102.133 221.477 100.252 221.54C100.037 221.544 99.8226 221.548 99.6122 221.553C93.7491 221.679 87.9128 221.735 77.6328 224.059C77.377 224.115 77.1212 224.174 76.8695 224.232C76.7375 224.265 76.6117 224.287 76.4776 224.319C76.2156 224.382 75.9845 224.452 75.7307 224.517C75.3512 224.612 74.9695 224.708 74.6085 224.808C74.101 224.947 73.612 225.088 73.1396 225.231C72.9127 225.298 72.6961 225.37 72.4774 225.442C72.0565 225.576 71.6336 225.711 71.2375 225.852C63.7529 228.464 60.9555 231.637 59.9116 233.645C59.8641 233.734 59.8208 233.817 59.7898 233.882C59.7837 233.893 59.7775 233.908 59.7713 233.921C59.7218 234.029 59.6929 234.097 59.6888 234.114C59.2885 235.046 59.2803 235.634 59.2803 235.634H75.1015H150.026C150.028 235.636 150.034 235.641 150.034 235.641C150.034 235.641 157.929 235.641 157.993 235.641L157.987 235.634H168.372L168.374 235.641C168.374 235.641 172.8 235.641 172.835 235.641C172.835 235.641 172.831 235.636 172.829 235.634H271.554C271.554 235.636 271.552 235.641 271.552 235.641H296.318C296.318 235.641 296.312 235.636 296.31 235.634H467.507C467.507 235.634 519.505 238.409 516.819 235.634L656.886 235.632Z" fill="#422508"/>
<path d="M349.495 234.079C348.368 209.302 328.978 189.58 305.173 189.58C281.376 189.58 261.988 209.302 260.868 234.079H349.495Z" fill="#A16529"/>
<path d="M529.437 233.749C527.745 196.502 498.593 166.852 462.804 166.852C427.029 166.852 397.885 196.5 396.201 233.749H529.437Z" fill="#A16529"/>
<path d="M418.168 233.467C416.598 198.934 389.569 171.44 356.381 171.44C323.208 171.44 296.184 198.934 294.623 233.467H418.168Z" fill="#A16529"/>
<path d="M1054.94 189.408H1058.21V186.577H1056.37V184.062L1034.89 176.512L1013.27 184.062V184.199H1012H1011.02H1010.04H1009.05H1007.88H1006.89H1005.91H1004.93H1003.75H1002.76H1001.79H1000.8H999.626H998.642H997.654H996.67H995.494H994.51H993.526H992.546H991.366H990.386H989.408H988.424H987.248H986.262H985.278H984.298H983.118H982.134H981.156H980.172H978.988H978.008H977.024H976.04H974.864H973.88H972.892H971.912H970.732H969.556H968.77H967.59H966.61H965.43H964.644H963.468H962.48H961.3H960.514H959.338H958.354H957.178H956.392H955.207H954.228H953.048H952.262H951.086H950.102H948.926H948.136H946.955H945.975H944.795H944.009H942.829H941.849H940.669H939.883H938.708H937.719H936.543H935.757H934.577H933.593H932.417H931.631H930.451H929.467H928.287H927.501H926.325H925.341H924.165H923.375H922.199H921.562V181.682H919.224V175.618H918.938V174.751H918.459L918.496 171.421L918.56 171.325L918.568 171.636L918.641 171.748L918.713 171.464L918.748 171.748L918.87 171.681L918.942 170.674L918.148 168.819L917.741 168.578L917.166 168.557C917.234 168.474 917.275 168.37 917.275 168.25V167.458C917.275 167.193 917.069 166.974 916.815 166.974C916.565 166.974 916.355 167.193 916.355 167.458V168.25C916.355 168.374 916.402 168.487 916.477 168.57L916.177 168.596L915.36 168.819L914.989 168.009L915.049 167.762L915.179 167.684L915.049 167.199L914.787 167.254L914.682 167.916L915.117 169.286L915.765 169.349L916.243 170.485L916.122 170.988L916.392 171.442L916.328 172.849L916.146 174.66L916.037 174.751H915.478V175.153H905.573V174.751H904.837L904.701 172.185L904.93 170.986L904.728 170.033L904.8 169.775L904.93 170.118L904.893 170.367L905.027 170.585H905.212L905.39 170.202L905.241 169.833L905.157 169.384L905.283 169.041L905.041 168.635L904.424 168.539L904.263 168.237L904.288 167.988L904.224 167.686L904.245 167.325L904.067 167.126C904.067 167.126 903.83 167.013 903.552 167.041L903.306 167.684L903.432 167.968L903.614 168.233V168.446L903.661 168.552L903.306 168.68C903.306 168.68 903.057 168.661 902.951 168.778C902.846 168.897 902.85 169.477 902.85 169.477L902.786 170.109L902.685 170.741L902.834 171.712L903.011 171.774L903.015 171.525L903.139 171.347L903.003 171.119L903.172 170.602L903.079 170.291L903.172 169.909L903.273 171.169L903.108 172.901L902.931 173.49L902.83 174.691L902.813 174.628L902.683 174.754H902.116V175.155H883.266V174.146H880.071V173.566H879.825V162.603H879.689V154.384H883.751V155.003H887.974V154.325V153.668V152.988V152.258V151.596V150.995V150.315V149.714V149.051H883.751V148.663H882.622H881.465H880.848H879.934C879.897 148.6 879.846 148.55 879.765 148.55C879.883 148.55 879.976 148.452 879.976 148.33C879.976 148.209 879.883 148.109 879.765 148.109H879.105C878.987 148.109 878.897 148.209 878.897 148.33C878.897 148.452 878.99 148.55 879.105 148.55C878.987 148.55 878.897 148.65 878.897 148.771C878.897 148.893 878.99 148.993 879.105 148.993V162.605H878.969V173.568H878.723V174.148H875.532V175.157H857.239V174.756H856.876L856.909 171.425L856.973 171.329L856.985 171.64L857.053 171.753L857.122 171.766L857.163 171.753L857.285 171.685L857.361 170.678L856.563 168.824L856.156 168.583L855.851 168.572C855.923 168.487 855.972 168.376 855.972 168.257V167.464C855.972 167.199 855.758 166.98 855.512 166.98C855.255 166.98 855.048 167.199 855.048 167.464V168.257C855.048 168.372 855.094 168.474 855.158 168.557L854.59 168.602L853.773 168.826L853.406 168.016L853.462 167.768L853.596 167.69L853.462 167.206L853.2 167.26L853.103 167.923L853.53 169.293L854.182 169.356L854.665 170.491L854.535 170.995L854.805 171.449L854.745 172.856L854.559 174.667L854.454 174.758H853.777V175.16H843.45V174.758H842.87C842.858 174.421 842.837 173.907 842.837 173.692C842.837 173.436 842.672 173.119 842.6 172.997C842.579 172.96 842.571 172.921 842.575 172.878L842.604 172.511C842.604 172.511 842.604 172.511 842.734 172.634C842.866 172.754 843.11 172.615 843.202 172.632C843.291 172.65 843.545 172.118 843.545 172.118H843.718L843.799 171.911C843.811 171.881 843.827 171.857 843.85 171.835L843.927 171.768C843.972 171.731 843.995 171.679 843.995 171.622L844.036 169.89C844.036 169.868 844.04 169.853 844.044 169.831L844.108 169.627C844.108 169.627 844.125 170.487 844.092 170.589C844.075 170.645 844.213 170.75 844.349 170.843C844.467 170.923 844.624 170.843 844.636 170.697L844.68 170.148C844.68 170.139 844.68 170.131 844.68 170.122L844.644 169.258L844.68 169.134L844.97 169.195L845.148 169.095L845.177 168.624L845.045 168.533L844.913 168.511L844.554 168.826C844.537 168.841 844.519 168.852 844.502 168.861L844.135 169.008C844.114 169.015 844.089 169.021 844.071 169.021H843.704C843.687 169.021 843.669 169.017 843.652 169.013L843.365 168.923C843.318 168.906 843.281 168.876 843.256 168.83L843.151 168.639C843.122 168.587 843.07 168.55 843.015 168.541L842.777 168.509C842.74 168.507 842.705 168.489 842.676 168.463L842.515 168.378C842.515 168.378 842.402 168.363 842.371 168.392C842.338 168.418 842.101 168.392 842.101 168.392L841.911 168.174L842.041 168.124L842.097 167.464C842.097 167.438 842.097 167.414 842.088 167.388L841.983 167.039L841.958 166.993H841.777L841.729 166.926L841.608 166.882L841.313 167.239C841.296 167.26 841.284 167.282 841.276 167.31L841.166 167.679C841.158 167.71 841.158 167.742 841.158 167.773L841.205 168.022C841.21 168.038 841.214 168.053 841.218 168.066L841.352 168.374L841.521 168.383L841.517 168.47L841.505 168.509L841.218 168.626L841.146 168.824L841.016 168.867L840.813 169.445C840.809 169.453 840.809 169.458 840.805 169.464L840.628 170.222L840.483 170.354L840.242 170.978L839.98 170.947L840.009 171.06L839.541 171.214V171.392H839.613L839.846 171.308L839.947 171.392C839.947 171.392 839.749 171.542 839.749 171.568C839.749 171.594 839.846 171.594 839.846 171.594L840.137 171.536C840.137 171.536 840.23 171.638 840.242 171.703C840.263 171.774 840.283 171.966 840.283 172.068C840.283 172.172 840.32 172.105 840.436 172.163C840.566 172.222 840.622 172.526 840.622 172.584C840.622 172.643 840.558 172.919 840.504 173.025C840.471 173.084 840.525 173.147 840.568 173.188C840.603 173.229 840.628 173.281 840.624 173.338L840.599 173.809C840.599 173.813 840.599 173.818 840.599 173.822L840.578 174.041C840.566 174.08 840.578 174.12 840.595 174.154C840.642 174.248 840.729 174.434 840.752 174.465C840.76 174.482 840.727 174.606 840.696 174.764H839.986V175.631H839.708V181.695H837.246V184.108H836.494H835.514H834.529H833.545H832.37H831.381H830.397H829.417H828.237H827.253H826.273H825.289H824.109H823.129H822.145H821.159H819.983H818.999H818.015H817.035H815.855H814.875H813.889H812.905H811.729H810.745H809.761H808.777H807.601H806.613H805.633H804.649H803.469H802.489H801.505H800.521H799.345H798.165H797.379H796.199H795.215H794.039H793.253H792.073H791.089H789.913H789.123H787.947H786.963H785.783H784.997H783.821H782.832H781.657H780.871H779.69H778.711H777.531H776.745H775.569H774.585H773.409H772.619H771.438H770.454H769.278H768.492H767.312H766.333H765.148H764.362H763.186H762.202H761.026H760.24H759.06H758.074H756.898H756.112H754.936H753.952H752.772H751.986H750.81H749.826H748.65H747.864H746.68H745.7H744.52H744.046V184.073L722.43 176.523L700.945 184.073V186.587H699.107V189.419H702.383V191.245V225.081H700.615V233.847H743.672V233.919H748.846H843.72H852.859H853.088H861.522H905.724H914.863H914.888H918.296H923.546H959.439H1008.42H1013.56H1013.6V233.847H1056.68V225.081H1054.92V191.245V189.408H1054.94ZM903.286 173.968L903.467 173.816L903.459 173.151L903.729 172.771V172.485L904.008 172.002V172.762L903.94 173.03L904.008 173.381C904.008 173.381 903.876 173.781 903.898 173.933C903.923 174.044 903.902 174.489 903.89 174.749H903.116L903.121 174.734L903.104 174.517L903.286 173.968ZM841.618 172.917L841.74 172.029C841.74 172.018 841.74 172.009 841.74 171.996C841.74 171.926 841.74 171.594 841.781 171.779C841.828 171.968 842.2 173.132 842.264 173.336C842.272 173.357 842.272 173.377 842.272 173.396C842.272 173.449 842.272 173.564 842.264 173.716C842.26 173.874 842.429 174.45 842.517 174.749H841.816C841.804 174.497 841.779 174.022 841.779 173.82C841.779 173.616 841.661 173.39 841.602 173.284C841.581 173.242 841.573 173.199 841.581 173.151L841.618 172.917Z" fill="#422508"/>
<path d="M608.617 234.255C607.514 209.919 588.462 190.546 565.077 190.546C541.706 190.546 522.662 209.919 521.562 234.255H608.617Z" fill="#A16529"/>
<path d="M1033.25 222.211C1030.42 222.211 1027.86 223.529 1025.98 225.7C1024.1 223.529 1021.54 222.211 1018.71 222.211C1015.93 222.211 1013.41 223.503 1011.53 225.596C1009.66 223.503 1007.14 222.211 1004.36 222.211C998.735 222.211 994.159 227.446 993.893 234.034H1008.25H1014.82H1022.79H1029.18H1043.72C1043.45 227.446 1038.88 222.211 1033.25 222.211Z" fill="#A16529"/>
<path d="M561.552 235.925C560.731 217.853 546.587 203.472 529.222 203.472C511.866 203.472 497.726 217.853 496.909 235.925H561.552Z" fill="#FFBE7C"/>
<path d="M439.434 233.18C438.26 207.32 418.022 186.733 393.173 186.733C368.334 186.733 348.102 207.317 346.932 233.18H439.434Z" fill="#FFBE7C"/>
<path d="M523.91 223.909H517.11V218.556C517.11 218.142 516.687 217.872 516.337 218.068L515.223 218.697C514.855 218.906 514.414 218.595 514.451 218.157L514.581 216.676C514.593 216.546 514.56 216.42 514.49 216.311C513.902 216.296 513.368 215.935 513.122 215.371C512.747 214.505 512.555 213.686 511.837 212.893L510.944 211.914C510.905 211.871 510.872 211.821 510.847 211.769L509.78 206.54C509.494 205.133 508.221 203.552 506.95 203.025L505.768 199.97C505.656 199.765 504.743 199.292 504.524 199.322L504.522 199.325L501.722 199.718C501.603 199.733 501.483 199.705 501.378 199.639L499.95 198.723C499.868 198.669 499.775 198.638 499.678 198.638H499.327H498.869H497.314H497.132V185.061H496.761V176.371H495.911V175.333C495.911 173.368 494.397 171.772 492.527 171.772C491.634 171.772 490.823 172.139 490.217 172.736C490.116 172.804 490.021 172.882 489.936 172.971C489.361 173.568 488.769 173.47 487.828 172.641C487.807 172.623 487.791 172.604 487.77 172.589C487.752 172.574 487.735 172.56 487.719 172.545L487.867 172.539C487.867 172.537 487.805 172.534 487.7 172.532C487.195 172.118 486.582 171.846 485.915 171.785C485.028 171.707 484.207 171.989 483.568 172.506C483.545 172.506 483.531 172.506 483.531 172.506L483.508 172.56C483.246 172.782 483.013 173.045 482.825 173.336C482.559 173.748 481.994 173.748 481.728 173.336C481.071 172.313 479.922 171.67 478.637 171.783C476.999 171.926 475.675 173.34 475.555 175.066C475.549 175.147 475.547 175.227 475.547 175.307L475.545 175.954H474.482V185.057H461.702V198.634H435.114V189.085C435.114 186.303 432.552 184.047 429.909 184.047H428.541C425.921 184.047 423.381 186.281 423.381 189.039V198.634H364.171V185.057H351.39V184.142H337.294V173.403C337.294 173.403 336.343 173.394 335.936 172.971C335.852 172.882 335.757 172.804 335.656 172.736C334.985 172.076 334.065 171.694 333.056 171.783C331.291 171.937 329.964 173.555 329.964 175.422V176.369H329.114V185.059H328.743V198.636H328.559H327.006H326.546H326.195C326.1 198.636 326.005 198.667 325.923 198.721L324.495 199.637C324.392 199.702 324.272 199.731 324.153 199.715L321.351 199.322L321.349 199.32C321.13 199.29 320.214 199.763 320.103 199.967L318.921 203.022C317.642 203.591 316.358 205.229 316.068 206.653L315.024 211.766C314.999 211.819 314.966 211.871 314.929 211.912L314.035 212.891C313.318 213.682 313.126 214.5 312.748 215.369C312.505 215.933 311.97 216.294 311.38 216.309C311.31 216.418 311.277 216.543 311.292 216.674L311.422 218.155C311.459 218.593 311.017 218.904 310.65 218.695L309.538 218.066C309.187 217.868 308.765 218.137 308.765 218.554V228.614H302.889V235.254H320.237V235.25H324.336H325.623H328.561H330.104H332.372H332.407H337.498H339.017H340.114H340.376H344.768H347.489H348.849H352.632H353.082H353.241H353.678H356.659H358.019H361.349H362.413H363.094H365.726H367.086H371.391L371.393 235.254H371.404V235.25H371.478H375.121H375.28H376.638H381.015L381.017 235.254H381.026V235.25H381.032H383.858H385.218H389.595L389.597 235.254H389.606V235.25H389.612H392.436H393.798H398.176L398.178 235.254H398.188V235.25H398.194H401.018H402.378H406.753L406.756 235.254H406.764V235.25H406.77H409.596H410.954H415.332L415.334 235.254H415.344V235.25H415.348H418.172H419.534H423.912L423.914 235.254H423.922V235.25H423.928H426.752H428.114H432.49L432.494 235.254H432.502V235.25H432.506H435.33H436.69H441.068L441.07 235.254H441.078V235.25H441.082H443.906H445.266H449.644L449.646 235.254H449.654V235.25H449.658H449.782H453.425V235.254H454.785V235.25H458.219H459.057L459.061 235.254H459.069V235.25H459.181H461.813H462.492V235.254H463.854V235.25H468.248H468.264L468.268 235.254H468.279V235.25H471.666V235.254H473.026V235.25H477.42H477.472L477.474 235.254H477.484V235.25H480.141H481.503H484.795H485.893H487.411H492.503H493.514H497.324H497.586H499.775V235.254H517.123V235.25H523.922V223.909H523.91ZM328.557 209.721H324.52V203.411C324.52 202.104 325.473 201.053 326.628 201.112C327.719 201.164 328.557 202.241 328.557 203.483V209.721ZM361.571 213.228H355.818V204.916C355.818 203.244 357.105 201.889 358.696 201.889C360.286 201.889 361.574 203.242 361.574 204.916L361.571 213.228ZM432.079 204.916V213.228H426.325V204.916C426.325 203.244 427.613 201.889 429.203 201.889C430.792 201.891 432.079 203.244 432.079 204.916ZM463.775 213.228V204.916C463.775 203.244 465.063 201.889 466.653 201.889C468.242 201.889 469.529 203.242 469.529 204.916V213.228H463.775ZM497.314 203.483C497.314 202.241 498.151 201.166 499.24 201.112C500.396 201.053 501.349 202.104 501.349 203.411V209.721H497.314V203.483ZM490.479 175.277C490.479 174.033 491.316 172.962 492.406 172.908C493.561 172.847 494.514 173.9 494.514 175.203V181.519H490.481V175.277H490.479ZM490.479 188.49C490.479 187.248 491.316 186.175 492.406 186.118C493.561 186.06 494.514 187.111 494.514 188.418V194.734H490.481V188.49H490.479ZM483.574 175.277C483.574 174.033 484.409 172.962 485.501 172.908C486.656 172.847 487.609 173.9 487.609 175.203V181.519H483.574V175.277ZM483.574 188.49C483.574 187.248 484.409 186.175 485.501 186.118C486.656 186.06 487.609 187.111 487.609 188.418V194.734H483.574V188.49ZM476.877 175.277C476.877 174.033 477.717 172.962 478.804 172.908C479.962 172.847 480.913 173.9 480.913 175.203V181.519H476.877V175.277ZM476.877 188.49C476.877 187.248 477.717 186.175 478.804 186.118C479.962 186.06 480.913 187.111 480.913 188.418V194.734H476.877V188.49ZM443.271 204.916C443.271 203.244 444.558 201.889 446.149 201.889C447.737 201.889 449.027 203.242 449.027 204.916V213.228H443.273V204.916H443.271ZM426.325 198.632V190.424C426.325 188.789 427.52 187.376 429.073 187.302C430.722 187.226 432.081 188.607 432.081 190.327V198.63C432.081 198.634 432.077 198.638 432.071 198.638H426.338C426.329 198.641 426.325 198.636 426.325 198.632ZM409.38 204.916C409.38 203.244 410.667 201.889 412.256 201.889C413.844 201.889 415.131 203.242 415.131 204.916V213.228H409.38V204.916ZM392.851 204.916C392.851 203.244 394.138 201.889 395.727 201.889C397.315 201.889 398.603 203.242 398.603 204.916V213.228H392.849L392.851 204.916ZM375.276 204.916C375.276 203.244 376.563 201.889 378.152 201.889C379.74 201.889 381.028 203.242 381.028 204.916V213.228H375.276V204.916ZM348.991 188.49V194.734H345.857L345.849 188.898C345.849 187.725 346.755 186.772 347.869 186.772C348.003 186.772 348.232 186.789 348.362 186.815C348.02 186.407 347.483 186.162 346.986 186.136C347.013 186.136 347.035 186.118 347.066 186.118C348.154 186.173 348.991 187.248 348.991 188.49ZM342.297 194.734H339.256L339.25 188.898C339.25 187.725 340.153 186.772 341.267 186.772C341.381 186.772 341.548 186.785 341.68 186.805C342.059 187.241 342.299 187.836 342.299 188.49L342.297 194.734ZM340.605 186.186C340.516 186.168 340.43 186.127 340.341 186.125C340.349 186.125 340.36 186.118 340.368 186.118C340.452 186.123 340.525 186.171 340.605 186.186ZM338.259 188.418C338.259 187.263 339.021 186.353 339.994 186.19C339.033 186.372 338.29 187.33 338.29 188.39L338.299 194.737H338.257V188.418H338.259ZM331.355 175.203C331.355 173.9 332.308 172.847 333.465 172.908C334.554 172.96 335.394 174.033 335.394 175.277V181.519H331.355V175.203ZM331.355 188.418C331.355 187.111 332.308 186.06 333.465 186.118C334.554 186.173 335.394 187.248 335.394 188.49V194.734H331.355V188.418Z" fill="#FAA24A"/>
<path d="M708.904 235.925C708.087 217.853 693.943 203.472 676.581 203.472C659.223 203.472 645.083 217.853 644.266 235.925H708.904Z" fill="#422508"/>
<path d="M538.869 219.792C535.005 219.792 531.508 221.344 528.936 223.904C526.369 221.344 522.872 219.792 519.004 219.792C515.206 219.792 511.763 221.312 509.205 223.781C506.649 221.312 503.204 219.792 499.399 219.792C491.723 219.792 485.474 225.965 485.111 233.73H504.716H513.7H524.576H533.301H553.166C552.8 225.965 546.552 219.792 538.869 219.792Z" fill="#A16529"/>
<path d="M1082.11 226.894C1080.15 226.894 1078.37 227.698 1077.06 229.033C1075.75 227.698 1073.99 226.894 1072.03 226.894C1070.1 226.894 1068.34 227.683 1067.04 228.977C1065.74 227.683 1064 226.894 1062.07 226.894C1058.17 226.894 1055 230.119 1054.81 234.164H1064.76H1069.33H1074.85H1079.29H1089.38C1089.19 230.121 1086 226.894 1082.11 226.894Z" fill="#131313"/>
<path d="M783.889 234.288C783.348 222.714 774.034 213.504 762.598 213.504C751.167 213.504 741.851 222.714 741.316 234.288H783.889Z" fill="#FFBE7C"/>
<path d="M762.598 234.288H783.889C783.348 222.723 774.034 213.504 762.598 213.504V234.288Z" fill="#A16529"/>
<path d="M501.518 233.33C501.19 226.301 495.533 220.704 488.585 220.704C481.639 220.704 475.98 226.301 475.654 233.33H501.518Z" fill="#422508"/>
<path d="M488.585 233.33H501.518C501.19 226.306 495.533 220.704 488.585 220.704V233.33Z" fill="#A16529"/>
<path d="M522.596 225.867C520.632 225.867 518.86 226.668 517.548 228.002C516.242 226.668 514.476 225.867 512.51 225.867C510.581 225.867 508.827 226.651 507.53 227.947C506.228 226.651 504.483 225.867 502.556 225.867C498.655 225.867 495.484 229.09 495.292 233.137H505.246H509.822H515.336H519.769H529.86C529.67 229.09 526.489 225.867 522.596 225.867Z" fill="#131313"/>
<path d="M768.204 230.392V227.168H759.382V222.404H759.056C759.036 221.911 758.681 221.518 758.241 221.518H758.871V220.587H758.388L758.541 194.65L758.388 169.395V168.615H758.871V167.684H757.992V167.423C758.371 167.258 758.64 166.837 758.64 166.348C758.64 166.348 759.18 165.195 758.893 165.195C758.745 165.195 758.514 165.232 758.252 165.295V165.169H759.279V157.685H756.954V155.496H752.937H752.232H743.417H742.711H733.355H732.65H713.777H713.068H695.742V160.798H693.84H690.789V161.593C690.488 161.793 690.269 162.153 690.269 162.581C690.269 163.219 690.721 163.734 691.288 163.734V164.513V165.295C691.031 165.23 690.797 165.193 690.651 165.193C690.36 165.193 690.905 166.346 690.905 166.346C690.905 166.835 691.175 167.247 691.552 167.417V167.681H690.674V168.613H691.156L691.004 194.648L691.156 220.584H690.674V221.516H691.334C690.87 221.516 690.488 221.913 690.484 222.402H690.158V227.166H681.272V222.402H680.947C680.926 221.909 680.567 221.516 680.13 221.516H680.759V220.584H680.28L680.429 194.648L680.284 169.393V168.613H680.759V167.681H679.884V167.421C680.264 167.256 680.532 166.835 680.532 166.346C680.532 166.346 681.072 165.193 680.781 165.193C680.637 165.193 680.406 165.23 680.148 165.293V164.513H680.152V163.736H680.148C680.152 163.736 680.152 163.736 680.156 163.736C680.715 163.736 681.171 163.219 681.171 162.581C681.171 162.138 680.955 161.756 680.631 161.563V160.798H679.628V158.147H676.404V155.496H653.034V158.961V159.763V160.8H651.782V161.597C651.476 161.797 651.262 162.155 651.262 162.585C651.262 163.224 651.718 163.738 652.277 163.738V164.518V165.3C652.019 165.237 651.79 165.197 651.639 165.197C651.353 165.197 651.893 166.35 651.893 166.35C651.893 166.839 652.163 167.252 652.541 167.421V167.686H651.666V168.617H652.145L651.996 194.652L652.145 220.589H651.666V221.52H652.326C651.858 221.52 651.476 221.918 651.472 222.406H651.146V227.17H639.204V230.395H628.432V233.893H778.977V230.395H768.204V230.392ZM661.829 222.402C661.808 221.909 661.449 221.516 661.012 221.516H661.641V220.584H661.158L661.311 194.648L661.162 169.393V168.613H661.641V167.681H660.766V167.421C661.142 167.256 661.412 166.835 661.412 166.346C661.412 166.346 661.593 165.957 661.69 165.632H670.753C670.85 165.96 671.023 166.346 671.023 166.346C671.023 166.835 671.294 167.247 671.669 167.417V167.681H670.794V168.613H671.277L671.124 194.648L671.277 220.584H670.794V221.516H671.455C670.986 221.516 670.613 221.913 670.609 222.402H670.279V227.166H662.155V222.402H661.829ZM700.916 222.402C700.896 221.909 700.541 221.516 700.102 221.516H700.727V220.584H700.248L700.401 194.648L700.252 169.393V168.613H700.727V167.681H699.848V167.421C700.229 167.256 700.496 166.835 700.496 166.346C700.496 166.346 701.04 165.193 700.753 165.193C700.605 165.193 700.374 165.23 700.116 165.293V165.167H710.41V165.295C710.153 165.232 709.924 165.193 709.773 165.193C709.486 165.193 710.027 166.346 710.027 166.346C710.027 166.835 710.297 167.247 710.677 167.417V167.681H709.802V168.613H710.283L710.134 194.648L710.283 220.584H709.802V221.516H710.462C709.994 221.516 709.616 221.913 709.608 222.402H709.286V227.166H701.24V222.402H700.916ZM720.045 222.402C720.024 221.909 719.665 221.516 719.226 221.516H719.855V220.584H719.372L719.525 194.648L719.376 169.393V168.613H719.855V167.681H718.976V167.421C719.356 167.256 719.624 166.835 719.624 166.346C719.624 166.346 720.164 165.193 719.878 165.193C719.729 165.193 719.498 165.23 719.244 165.293V165.167H730.22V165.295C729.962 165.23 729.737 165.193 729.586 165.193C729.299 165.193 729.84 166.346 729.84 166.346C729.84 166.835 730.114 167.247 730.488 167.417V167.681H729.609V168.613H730.092L729.939 194.648L730.092 220.584H729.609V221.516H730.269C729.801 221.516 729.427 221.913 729.423 222.402H729.097V227.166H720.362V222.402H720.045ZM739.934 222.402C739.909 221.909 739.551 221.516 739.113 221.516H739.746V220.584H739.264L739.416 194.648L739.268 169.393V168.613H739.749V167.681H738.87V167.421C739.249 167.256 739.518 166.835 739.518 166.346C739.518 166.346 740.058 165.193 739.767 165.193C739.623 165.193 739.392 165.23 739.134 165.293V165.167H749.356V165.297C749.098 165.232 748.865 165.195 748.714 165.195C748.432 165.195 748.968 166.348 748.968 166.348C748.968 166.837 749.243 167.249 749.62 167.419V167.684H748.741V168.615H749.224L749.067 194.65L749.224 220.587H748.741V221.518H749.397C748.933 221.518 748.556 221.915 748.551 222.404H748.225V227.168H740.26V222.404H739.934V222.402Z" fill="#FAA24A"/>
<path d="M205.69 151.435C205.674 151.101 205.416 150.834 205.096 150.834H205.556V150.202H205.203L205.315 132.603L205.207 115.465V114.937H205.556V114.305H204.915V114.125C205.191 114.014 205.389 113.732 205.389 113.4C205.389 113.4 205.785 112.618 205.575 112.618C205.467 112.618 205.298 112.642 205.11 112.688V112.156H205.115V111.628H205.11V111.313H204.915H201.069H200.873V111.628V112.156V112.688C200.683 112.642 200.516 112.618 200.407 112.618C200.196 112.618 200.595 113.4 200.595 113.4C200.595 113.732 200.793 114.014 201.069 114.125V114.305H200.427V114.937H200.78V114.952L200.667 132.603L200.78 150.202H200.427V150.834H200.888C200.566 150.834 200.308 151.103 200.293 151.435H200.05V154.666H205.936V151.435H205.69Z" fill="#422508"/>
<path d="M261.775 234.802C260.954 216.73 246.812 202.349 229.448 202.349C212.094 202.349 197.954 216.73 197.137 234.802H261.775Z" fill="#A16529"/>
<path d="M305.635 216.494C300.812 216.494 296.446 218.435 293.232 221.627C290.028 218.433 285.663 216.494 280.835 216.494C276.093 216.494 271.793 218.391 268.6 221.475C265.408 218.391 261.109 216.494 256.358 216.494C246.773 216.494 238.975 224.204 238.519 233.895H262.992H274.213H287.792H298.683H323.486C323.026 224.204 315.226 216.494 305.635 216.494Z" fill="#FFBE7C"/>
<path d="M300.76 173.136C300.76 173.136 301.897 206.395 304.304 235.393L297.162 235.699L298.955 173.203L300.76 173.136Z" fill="#FFBE7C"/>
<path d="M321.058 192.109C321.058 192.109 319.292 177.811 306.276 175.959C305.385 175.828 319.583 172.584 325.238 174.571C326.713 175.097 319.533 160.922 305.057 169.549C302.483 171.082 310.314 160.703 310.314 160.703C310.314 160.703 300.054 161.925 299.475 170.324C299.386 171.744 293.799 157.328 279.93 169.371C279.701 169.575 294.42 172.613 294.165 173.136C293.909 173.644 276.546 170.324 276.039 184.549C276.031 184.757 290.105 179.231 294.511 179.348C294.889 179.365 281.188 185.982 288.526 200.675C288.916 201.418 297.632 194.628 298.862 185.326C299.431 180.914 299.411 178.03 299.411 178.03C299.411 178.03 305.336 189.669 321.058 192.109Z" fill="#FFBE7C"/>
<path d="M305.513 225.068C303.046 225.068 300.818 226.074 299.172 227.752C297.531 226.074 295.314 225.068 292.846 225.068C290.424 225.068 288.221 226.058 286.589 227.68C284.957 226.058 282.764 225.068 280.349 225.068C275.447 225.068 271.469 229.116 271.228 234.194H283.724H289.469H296.395H301.963H314.632C314.395 229.116 310.401 225.068 305.513 225.068Z" fill="#131313"/>
<path d="M324.561 204.043C328.604 203.787 341.721 209.037 341.711 208.835C340.791 194.185 324.943 198.143 324.683 197.618C324.431 197.095 337.867 193.492 337.643 193.299C324.522 181.326 319.843 196.356 319.713 194.893C318.912 186.253 309.437 185.309 309.437 185.309C309.437 185.309 316.969 195.766 314.555 194.27C300.964 185.825 294.814 200.654 296.155 200.067C301.298 197.835 314.45 200.747 313.631 200.905C301.723 203.231 300.552 218.018 300.552 218.018C310.037 216.031 315.457 210.071 318.058 206.236C317.272 213.232 316.148 224.371 315.57 235.43L320.396 236.544L320.635 209.534C320.672 209.804 320.703 210.06 320.744 210.338C322.164 219.877 330.387 226.616 330.725 225.828C337.019 210.472 324.208 204.067 324.561 204.043Z" fill="#131313"/>
<path d="M575.82 228.11V225.489V225.24V219.182V218.93V212.872V212.62V208.655V206.564V206.312V204.182H577.21V201.116H573.616V201.077C573.616 199.985 572.774 199.097 571.735 199.097H570.775V197.807C570.775 197.197 570.324 196.71 569.752 196.66V196.645V194.921V172.539V168.682V167.864V166.956H570.196V162.518H570.775V161.028H571.493V159.537H571.163L562.499 156.023C562.185 155.895 561.855 155.815 561.527 155.732C561.486 155.496 561.362 155.287 561.164 155.187C561.246 155.079 561.298 154.946 561.298 154.797C561.298 154.482 561.075 154.223 560.79 154.182C560.941 154.093 561.04 153.926 561.04 153.735C561.04 153.581 560.976 153.446 560.875 153.353C561.034 153.255 561.141 153.075 561.141 152.868C561.141 152.584 560.939 152.352 560.679 152.317C560.76 152.189 560.811 152.043 560.834 151.887C561.094 151.824 561.288 151.574 561.288 151.281C561.288 151.021 561.135 150.795 560.916 150.704L561.787 149.657L562.946 150.093C563.047 150.13 563.148 150.143 563.248 150.135C563.547 150.12 563.823 149.918 563.928 149.603C564.064 149.188 563.856 148.726 563.464 148.576L560.079 147.31C560.037 147.295 559.996 147.284 559.953 147.277C559.94 147.275 559.928 147.271 559.914 147.271C559.887 147.266 559.858 147.266 559.833 147.266C559.829 147.266 559.825 147.266 559.821 147.266C559.792 147.266 559.765 147.266 559.738 147.271C559.724 147.271 559.711 147.273 559.697 147.277C559.656 147.284 559.615 147.295 559.573 147.31L556.188 148.576C555.796 148.723 555.588 149.188 555.726 149.603C555.864 150.02 556.301 150.239 556.693 150.093L557.838 149.666L558.715 150.712C558.511 150.81 558.366 151.029 558.366 151.279C558.366 151.572 558.562 151.82 558.82 151.885C558.843 152.041 558.897 152.187 558.975 152.315C558.717 152.349 558.515 152.582 558.515 152.866C558.515 153.073 558.622 153.253 558.781 153.35C558.68 153.442 558.616 153.578 558.616 153.733C558.616 153.924 558.719 154.091 558.868 154.18C558.583 154.223 558.36 154.482 558.36 154.794C558.36 154.942 558.412 155.077 558.494 155.185C558.296 155.287 558.17 155.496 558.131 155.73C557.781 155.817 557.434 155.902 557.098 156.039L548.485 159.532H548.154V161.024H548.872V162.514H549.452V166.952H549.846V167.859V168.678V194.917V196.641H549.894V196.645C549.326 196.66 548.87 197.142 548.87 197.74V199.092H547.905C546.867 199.092 546.025 199.978 546.025 201.07V201.112H542.436V204.178H543.826V206.303V206.555V208.646V212.611V212.863V218.921V219.173V225.231V225.481V228.102H539.453V234.59H580.205V228.102H575.82V228.11Z" fill="#FAA24A"/>
<path d="M561.18 226.256C559.214 226.256 557.442 227.057 556.132 228.393C554.826 227.057 553.058 226.256 551.094 226.256C549.163 226.256 547.41 227.042 546.112 228.338C544.81 227.042 543.065 226.256 541.138 226.256C537.237 226.256 534.068 229.478 533.876 233.528H543.828H548.404H553.919H558.352H568.444C568.257 229.48 565.073 226.256 561.18 226.256Z" fill="#131313"/>
<path d="M112.023 235.295C111.394 221.429 100.543 210.396 87.2217 210.396C73.9049 210.396 63.0597 221.429 62.4305 235.295H112.023Z" fill="#422508"/>
<path d="M98.0009 182.907C101.401 182.801 112.263 187.58 112.252 187.402C111.86 175.103 98.4672 177.978 98.267 177.537C98.0731 177.083 109.43 174.45 109.253 174.28C98.5497 163.864 94.2421 176.328 94.174 175.103C93.7263 167.84 85.8106 166.78 85.8106 166.78C85.8106 166.78 91.8511 175.759 89.8664 174.437C78.6932 166.969 73.156 179.229 74.2948 178.779C78.656 177.053 89.6127 179.861 88.9237 179.978C78.883 181.583 77.5214 193.946 77.5214 193.946C86.0499 192.461 90.8299 187.054 92.9218 183.971C92.4597 194.952 91.4178 217.929 90.0583 236.303L95.5665 236.566L94.762 188.781C96.0018 196.456 102.327 201.978 102.62 201.355C108.281 188.646 97.71 182.924 98.0009 182.907Z" fill="#131313"/>
<path d="M113.75 227.133C111.935 227.133 110.297 227.871 109.083 229.107C107.879 227.871 106.247 227.133 104.433 227.133C102.651 227.133 101.032 227.858 99.8308 229.055C98.6302 227.858 97.0169 227.133 95.2386 227.133C91.6345 227.133 88.7071 230.112 88.5317 233.847H97.7224H101.95H107.043H111.138H120.459C120.284 230.112 117.346 227.133 113.75 227.133Z" fill="#131313"/>
<path d="M50.3041 227.133C48.4907 227.133 46.8527 227.871 45.6396 229.107C44.4348 227.871 42.8009 227.133 40.9875 227.133C39.2051 227.133 37.5856 227.858 36.387 229.055C35.1843 227.858 33.571 227.133 31.7927 227.133C28.1886 227.133 25.2612 230.112 25.0858 233.847H34.2786H38.5037H43.5993H47.6944H57.013C56.8376 230.112 53.902 227.133 50.3041 227.133Z" fill="#131313"/>
<path d="M1014.04 232.069V231.026H1012.05V229.989H1010.19V228.946H1008.41V227.906H1005.34V226.94H1004.89V225.978H1004.59V213.134H1004.41V212.835H1004.59V206.801H1000.24V212.835H1000.42V213.134H1000.24V225.978H999.934V226.94H999.494V227.906H986.984V226.94H986.545V225.978H986.233V213.134H986.064V212.835H986.233V185.254H986.419V184.559H986.563V182.362H986.896V180.002H981.237V182.362H981.565V184.559H981.713V185.254H981.899V212.835H982.068V213.134H981.899V225.978H981.583V226.94H981.142V227.906H967.32V226.94H966.88V225.978H966.571V213.134H966.397V212.835H966.571V185.254H966.752V184.559H962.047V185.254H962.228V212.835H962.401V213.134H962.228V225.978H961.917V226.94H961.477V227.906H949.301V226.94H948.858V225.978H948.552V213.134H948.379V212.835H948.552V185.254H948.734V184.559H948.882V182.362H949.208V180.002H943.552V182.362H943.878V184.559H944.026V185.254H944.208V212.835H944.381V213.134H944.208V225.978H943.898V226.94H943.459V227.906H940.542V228.946H938.765V229.989H936.898V231.026H934.924V232.069H933.169V233.282H1015.79V232.069H1014.04Z" fill="#FAA24A"/>
<path d="M934.755 226.894C932.793 226.894 931.021 227.698 929.707 229.033C928.401 227.698 926.633 226.894 924.671 226.894C922.736 226.894 920.984 227.683 919.687 228.977C918.385 227.683 916.642 226.894 914.715 226.894C910.814 226.894 907.647 230.119 907.453 234.164H917.405H921.979H927.495H931.931H942.021C941.831 230.121 938.652 226.894 934.755 226.894Z" fill="#131313"/>
<path d="M644.685 194.087H586.452V190.806H602.762L606.135 192.281L606.253 190.806H616.966L618.441 191.05L619.337 190.806L621.963 191.05L633.85 190.806L634.221 190.967C634.694 191.173 635.224 191.139 635.663 190.874L635.781 190.806H637.683H642.591L642.971 191.297L644.2 192.272C644.805 192.795 644.685 193.251 644.685 194.087Z" fill="#FAA24A"/>
<path d="M584.474 193.473H584.773C584.773 193.473 585.128 194.372 585.394 194.38C585.619 194.389 585.441 195.353 585.441 195.353C585.441 195.353 585.225 195.583 585.666 195.729C585.877 195.796 585.404 196.196 585.367 196.463C585.346 196.615 585.747 196.671 586.089 196.689V196.804V196.843H585.701V197.713H590.782V196.843H590.411V196.804V196.689C590.745 196.667 591.133 196.617 591.113 196.463C591.08 196.196 590.609 195.796 590.813 195.729C591.265 195.586 591.042 195.353 591.042 195.353C591.042 195.353 590.865 194.389 591.094 194.38C591.36 194.372 591.711 193.473 591.711 193.473H592.012V191.634H584.47V193.473H584.474Z" fill="#FAA24A"/>
<path d="M638.737 167.529H596.437V170.38H638.737V167.529Z" fill="#FAA24A"/>
<path d="M619.202 158.82H615.972V159.806H619.202V158.82Z" fill="#FAA24A"/>
<path d="M638.737 166.576H596.437V169.455H638.737V166.576Z" fill="#FAA24A"/>
<path d="M641.401 167.529H598.158C597.76 167.529 597.359 167.493 596.969 167.419L596.386 167.314C596.276 167.293 596.169 167.304 596.064 167.343C595.777 167.449 595.455 167.323 595.315 167.047L595.201 166.826C595.154 166.73 595.133 166.624 595.138 166.52C595.142 166.32 595.166 166.122 595.15 165.923L595.133 165.723L596.169 165.53C596.883 165.738 597.636 165.768 598.364 165.621L599.637 165.367C599.674 165.358 599.709 165.354 599.75 165.354H603.804L605.203 165.599L607 165.844L608.079 166.272L608.434 165.352H642.009V166.911C642.009 167.258 641.735 167.529 641.401 167.529Z" fill="#FAA24A"/>
<path d="M627.23 164.62H607.945V163.083L617.587 159.148L627.23 163.083V164.62Z" fill="#FAA24A"/>
<path d="M609.467 163.938V164.62H625.705V163.938L617.587 160.622L609.467 163.938Z" fill="#FAA24A"/>
<path opacity="0.1" d="M611.027 164.39L618.92 161.167L617.587 160.622L609.467 163.938V164.62H611.027V164.39Z" fill="#FAA24A"/>
<path opacity="0.1" d="M638.737 167.529H596.437V168.676H638.737V167.529Z" fill="#FAA24A"/>
<path d="M599.358 167.529H598.775V168.339H599.358V167.529Z" fill="#FAA24A"/>
<path d="M598.426 167.529H597.694V168.339H598.426V167.529Z" fill="#FAA24A"/>
<path d="M600.293 167.529H599.709V168.339H600.293V167.529Z" fill="#FAA24A"/>
<path d="M601.232 167.529H600.648V168.339H601.232V167.529Z" fill="#FAA24A"/>
<path d="M602.166 167.529H601.582V168.339H602.166V167.529Z" fill="#FAA24A"/>
<path d="M603.097 167.529H602.517V168.339H603.097V167.529Z" fill="#FAA24A"/>
<path d="M604.031 167.529H603.447V168.339H604.031V167.529Z" fill="#FAA24A"/>
<path d="M604.968 167.529H604.384V168.339H604.968V167.529Z" fill="#FAA24A"/>
<path d="M605.902 167.529H605.318V168.339H605.902V167.529Z" fill="#FAA24A"/>
<path d="M606.837 167.529H606.253V168.339H606.837V167.529Z" fill="#FAA24A"/>
<path d="M607.776 167.529H607.192V168.339H607.776V167.529Z" fill="#FAA24A"/>
<path d="M628.102 167.529H627.519V168.339H628.102V167.529Z" fill="#FAA24A"/>
<path d="M629.037 167.529H628.453V168.339H629.037V167.529Z" fill="#FAA24A"/>
<path d="M629.974 167.529H629.39V168.339H629.974V167.529Z" fill="#FAA24A"/>
<path d="M630.908 167.529H630.324V168.339H630.908V167.529Z" fill="#FAA24A"/>
<path d="M631.843 167.529H631.259V168.339H631.843V167.529Z" fill="#FAA24A"/>
<path d="M632.777 167.529H632.193V168.339H632.777V167.529Z" fill="#FAA24A"/>
<path d="M633.712 167.529H633.128V168.339H633.712V167.529Z" fill="#FAA24A"/>
<path d="M634.646 167.529H634.062V168.339H634.646V167.529Z" fill="#FAA24A"/>
<path d="M635.581 167.529H634.997V168.339H635.581V167.529Z" fill="#FAA24A"/>
<path d="M636.515 167.529H635.932V168.339H636.515V167.529Z" fill="#FAA24A"/>
<path d="M637.576 167.529H636.992V168.339H637.576V167.529Z" fill="#FAA24A"/>
<path d="M638.387 167.529H637.803V168.339H638.387V167.529Z" fill="#FAA24A"/>
<path d="M640.01 167.529H637.46V170.38H640.01V167.529Z" fill="#FAA24A"/>
<path d="M597.762 167.529H595.212V170.38H597.762V167.529Z" fill="#FAA24A"/>
<path d="M627.23 164.62H607.945V166.003H627.23V164.62Z" fill="#FAA24A"/>
<path d="M627.23 166.003H607.945V167.532H627.23V166.003Z" fill="#FAA24A"/>
<path d="M627.285 167.529H608.009V169.455H627.285V167.529Z" fill="#FAA24A"/>
<path d="M627.285 168.248H608.009V168.741H627.285V168.248Z" fill="#FAA24A"/>
<path opacity="0.1" d="M627.23 166.003H607.945V167.154H627.23V166.003Z" fill="#FAA24A"/>
<path d="M608.997 166.003H608.413V166.813H608.997V166.003Z" fill="#FAA24A"/>
<path d="M609.936 166.003H609.352V166.813H609.936V166.003Z" fill="#FAA24A"/>
<path d="M610.87 166.003H610.286V166.813H610.87V166.003Z" fill="#FAA24A"/>
<path d="M611.805 166.003H611.221V166.813H611.805V166.003Z" fill="#FAA24A"/>
<path d="M612.739 166.003H612.155V166.813H612.739V166.003Z" fill="#FAA24A"/>
<path d="M613.674 166.003H613.09V166.813H613.674V166.003Z" fill="#FAA24A"/>
<path d="M614.604 166.003H614.02V166.813H614.604V166.003Z" fill="#FAA24A"/>
<path d="M615.541 166.003H614.957V166.813H615.541V166.003Z" fill="#FAA24A"/>
<path d="M616.479 166.003H615.896V166.813H616.479V166.003Z" fill="#FAA24A"/>
<path d="M617.414 166.003H616.83V166.813H617.414V166.003Z" fill="#FAA24A"/>
<path d="M618.349 166.003H617.765V166.813H618.349V166.003Z" fill="#FAA24A"/>
<path d="M619.283 166.003H618.699V166.813H619.283V166.003Z" fill="#FAA24A"/>
<path d="M620.218 166.003H619.634V166.813H620.218V166.003Z" fill="#FAA24A"/>
<path d="M621.152 166.003H620.568V166.813H621.152V166.003Z" fill="#FAA24A"/>
<path d="M622.083 166.003H621.503V166.813H622.083V166.003Z" fill="#FAA24A"/>
<path d="M623.023 166.003H622.435V166.813H623.023V166.003Z" fill="#FAA24A"/>
<path d="M623.954 166.003H623.37V166.813H623.954V166.003Z" fill="#FAA24A"/>
<path d="M624.888 166.003H624.304V166.813H624.888V166.003Z" fill="#FAA24A"/>
<path d="M625.827 166.003H625.243V166.813H625.827V166.003Z" fill="#FAA24A"/>
<path d="M626.761 166.003H626.178V166.813H626.761V166.003Z" fill="#FAA24A"/>
<path d="M603.449 165.358H603.099V167.529H603.449V165.358Z" fill="#FAA24A"/>
<path d="M595.28 166.997L595.131 166.628H607.969V166.997H595.28Z" fill="#FAA24A"/>
<path d="M635.583 165.358H635.232V167.529H635.583V165.358Z" fill="#FAA24A"/>
<path d="M635.583 166.628H627.23V166.997H635.583V166.628Z" fill="#FAA24A"/>
<path d="M596.062 190.83V190.507H596.122V190.498C596.122 190.35 596.02 190.229 595.893 190.19V173.082H595.736V173.003C595.876 172.993 596.041 172.964 596.031 172.884C596.018 172.745 595.82 172.541 595.909 172.504C596.095 172.43 596.002 172.309 596.002 172.309C596.002 172.309 595.93 171.805 596.023 171.805C596.136 171.798 596.28 171.332 596.28 171.332H596.406V170.376H593.27V171.332H593.396C593.396 171.332 593.541 171.798 593.654 171.805C593.747 171.807 593.675 172.309 593.675 172.309C593.675 172.309 593.582 172.43 593.768 172.504C593.856 172.541 593.658 172.745 593.646 172.884C593.634 172.964 593.799 172.993 593.945 173.003V173.082H593.784V190.19C593.654 190.229 593.555 190.348 593.555 190.498V190.507H593.615V190.83C593.405 190.83 593.24 191.006 593.24 191.225H593.784H595.895H596.439C596.437 191.006 596.272 190.83 596.062 190.83Z" fill="#FAA24A"/>
<path opacity="0.75" d="M595.659 173.357H594.015V189.944H595.659V173.357Z" fill="#FAA24A"/>
<path opacity="0.75" d="M593.27 171.336H593.396C593.396 171.336 593.541 171.803 593.654 171.809C593.747 171.811 593.675 172.313 593.675 172.313C593.675 172.313 593.582 172.435 593.768 172.508C593.856 172.545 593.658 172.749 593.646 172.888C593.633 172.969 593.799 172.997 593.945 173.008V173.066H595.738V173.008C595.878 172.997 596.043 172.969 596.033 172.888C596.02 172.749 595.822 172.545 595.911 172.508C596.097 172.435 596.004 172.313 596.004 172.313C596.004 172.313 595.932 171.809 596.025 171.809C596.138 171.803 596.282 171.336 596.282 171.336H596.408V170.38H593.272L593.27 171.336Z" fill="#FAA24A"/>
<path d="M641.629 190.83V190.507H641.693V190.498C641.693 190.35 641.592 190.229 641.464 190.19V173.082H641.304V173.003C641.444 172.993 641.605 172.964 641.596 172.884C641.588 172.745 641.39 172.541 641.475 172.504C641.66 172.43 641.568 172.309 641.568 172.309C641.568 172.309 641.499 171.805 641.592 171.805C641.698 171.798 641.85 171.332 641.85 171.332H641.976V170.376H638.838V171.332H638.964C638.964 171.332 639.108 171.798 639.222 171.805C639.315 171.807 639.243 172.309 639.243 172.309C639.243 172.309 639.15 172.43 639.335 172.504C639.424 172.541 639.226 172.745 639.214 172.884C639.201 172.964 639.366 172.993 639.513 173.003V173.082H639.352V190.19C639.218 190.229 639.123 190.348 639.123 190.498V190.507H639.183V190.83C638.972 190.83 638.807 191.006 638.807 191.225H639.352H641.467H642.011C642.009 191.006 641.844 190.83 641.629 190.83Z" fill="#FAA24A"/>
<path opacity="0.75" d="M641.231 173.357H639.583V189.944H641.231V173.357Z" fill="#FAA24A"/>
<path opacity="0.75" d="M638.838 171.336H638.964C638.964 171.336 639.109 171.803 639.222 171.809C639.315 171.811 639.243 172.313 639.243 172.313C639.243 172.313 639.15 172.435 639.335 172.508C639.424 172.545 639.226 172.749 639.214 172.888C639.201 172.969 639.366 172.997 639.513 173.008V173.066H641.306V173.008C641.446 172.997 641.607 172.969 641.599 172.888C641.59 172.749 641.392 172.545 641.477 172.508C641.663 172.435 641.57 172.313 641.57 172.313C641.57 172.313 641.502 171.809 641.594 171.809C641.7 171.803 641.852 171.336 641.852 171.336H641.978V170.38H638.84V171.336H638.838Z" fill="#FAA24A"/>
<path d="M627.847 190.83V190.507H627.907V190.498C627.907 190.35 627.805 190.229 627.677 190.19V173.082H627.521V173.003C627.661 172.993 627.824 172.964 627.816 172.884C627.803 172.745 627.605 172.541 627.69 172.504C627.876 172.43 627.787 172.309 627.787 172.309C627.787 172.309 627.711 171.805 627.807 171.805C627.917 171.798 628.065 171.332 628.065 171.332H628.189V170.376H625.051V171.332H625.181C625.181 171.332 625.322 171.798 625.439 171.805C625.532 171.807 625.46 172.309 625.46 172.309C625.46 172.309 625.367 172.43 625.548 172.504C625.637 172.541 625.443 172.745 625.427 172.884C625.414 172.964 625.579 172.993 625.728 173.003V173.082H625.567V190.19C625.435 190.229 625.338 190.348 625.338 190.498V190.507H625.398V190.83H625.394C625.183 190.83 625.018 191.006 625.018 191.225H625.567H627.677H628.222C628.22 191.006 628.051 190.83 627.847 190.83Z" fill="#FAA24A"/>
<path opacity="0.75" d="M627.442 173.357H625.798V189.944H627.442V173.357Z" fill="#FAA24A"/>
<path opacity="0.75" d="M625.049 171.336H625.179C625.179 171.336 625.319 171.803 625.437 171.809C625.53 171.811 625.458 172.313 625.458 172.313C625.458 172.313 625.365 172.435 625.546 172.508C625.635 172.545 625.441 172.749 625.425 172.888C625.412 172.969 625.577 172.997 625.726 173.008V173.066H627.519V173.008C627.659 172.997 627.822 172.969 627.814 172.888C627.801 172.749 627.603 172.545 627.688 172.508C627.873 172.435 627.785 172.313 627.785 172.313C627.785 172.313 627.708 171.809 627.805 171.809C627.915 171.803 628.063 171.336 628.063 171.336H628.187V170.38H625.049V171.336Z" fill="#FAA24A"/>
<path d="M610.084 190.83V190.507H610.144V190.498C610.144 190.35 610.047 190.229 609.915 190.19V173.082H609.762V173.003C609.902 172.993 610.063 172.964 610.057 172.884C610.041 172.745 609.845 172.541 609.931 172.504C610.117 172.43 610.024 172.309 610.024 172.309C610.024 172.309 609.952 171.805 610.045 171.805C610.158 171.798 610.303 171.332 610.303 171.332H610.428V170.376H607.293V171.332H607.419C607.419 171.332 607.563 171.798 607.676 171.805C607.773 171.807 607.693 172.309 607.693 172.309C607.693 172.309 607.604 172.43 607.786 172.504C607.879 172.541 607.681 172.745 607.664 172.884C607.656 172.964 607.821 172.993 607.963 173.003V173.082H607.806V190.19C607.676 190.229 607.573 190.348 607.573 190.498V190.507H607.633V190.83C607.423 190.83 607.262 191.006 607.262 191.225H607.806H609.917H610.461C610.459 191.006 610.294 190.83 610.084 190.83Z" fill="#FAA24A"/>
<path opacity="0.75" d="M609.678 173.357H608.038V189.944H609.678V173.357Z" fill="#FAA24A"/>
<path opacity="0.75" d="M607.293 171.336H607.419C607.419 171.336 607.563 171.803 607.676 171.809C607.773 171.811 607.693 172.313 607.693 172.313C607.693 172.313 607.604 172.435 607.786 172.508C607.879 172.545 607.681 172.749 607.664 172.888C607.656 172.969 607.821 172.997 607.963 173.008V173.066H609.764V173.008C609.904 172.997 610.065 172.969 610.059 172.888C610.043 172.749 609.847 172.545 609.933 172.508C610.119 172.435 610.026 172.313 610.026 172.313C610.026 172.313 609.954 171.809 610.047 171.809C610.16 171.803 610.305 171.336 610.305 171.336H610.431V170.38H607.295L607.293 171.336Z" fill="#FAA24A"/>
<path d="M627.228 169.456H608.009V170.38H627.228V169.456Z" fill="#FAA24A"/>
<path opacity="0.1" d="M627.228 169.456H608.009V170.044H627.228V169.456Z" fill="#FAA24A"/>
<path d="M589.25 191.625V233.276H604.755L604.054 211.879C604.054 204.482 610.581 198.482 617.767 198.482C624.95 198.482 631.473 204.482 631.473 211.879L630.772 233.276H646.278V202.436L645.919 197.199L645.217 195.31L644.46 194.092L640.406 193.275L636.748 191.625L631.354 192.467L630.326 191.625H623.025L622.159 192.305L619.636 191.625H605.904L605.779 192.272C605.649 192.958 606.146 193.612 605.649 194.087L604.165 193.592L603.742 191.625H589.25Z" fill="#FAA24A"/>
<path opacity="0.1" d="M602.843 228.766H591.441C591.247 228.766 591.094 228.929 591.094 229.133C591.094 229.337 591.247 229.506 591.441 229.506H596.412C596.606 229.506 596.763 229.669 596.763 229.873V232.909C596.763 233.113 596.92 233.278 597.114 233.278C597.308 233.278 597.465 233.113 597.465 232.909V229.873C597.465 229.669 597.621 229.506 597.815 229.506H602.843C603.037 229.506 603.189 229.337 603.189 229.133C603.189 228.929 603.037 228.766 602.843 228.766Z" fill="#FAA24A"/>
<path opacity="0.1" d="M597.815 219.173H602.843C603.037 219.173 603.189 219.008 603.189 218.804C603.189 218.597 603.037 218.435 602.843 218.435H591.441C591.247 218.435 591.094 218.597 591.094 218.804C591.094 219.008 591.247 219.173 591.441 219.173H596.412C596.606 219.173 596.763 219.338 596.763 219.542V223.231C596.763 223.435 596.606 223.6 596.412 223.6H591.441C591.247 223.6 591.094 223.763 591.094 223.967C591.094 224.173 591.247 224.339 591.441 224.339H602.843C603.037 224.339 603.189 224.173 603.189 223.967C603.189 223.763 603.037 223.6 602.843 223.6H597.815C597.621 223.6 597.465 223.435 597.465 223.231V219.542C597.465 219.338 597.621 219.173 597.815 219.173Z" fill="#FAA24A"/>
<path opacity="0.1" d="M604.617 208.103H591.441C591.247 208.103 591.094 208.268 591.094 208.472C591.094 208.677 591.247 208.844 591.441 208.844H596.412C596.606 208.844 596.763 209.007 596.763 209.211V212.902C596.763 213.106 596.606 213.269 596.412 213.269H591.441C591.247 213.269 591.094 213.434 591.094 213.64C591.094 213.844 591.247 214.009 591.441 214.009H602.843C603.037 214.009 603.189 213.844 603.189 213.64C603.189 213.434 603.037 213.269 602.843 213.269H597.815C597.621 213.269 597.465 213.106 597.465 212.902V209.211C597.465 209.007 597.621 208.844 597.815 208.844H604.617C604.811 208.844 604.968 208.677 604.968 208.472C604.968 208.268 604.811 208.103 604.617 208.103Z" fill="#FAA24A"/>
<path opacity="0.1" d="M644.487 228.766H633.093C632.899 228.766 632.738 228.929 632.738 229.133C632.738 229.337 632.899 229.506 633.093 229.506H638.114C638.308 229.506 638.465 229.669 638.465 229.873V232.909C638.465 233.113 638.622 233.278 638.816 233.278C639.009 233.278 639.166 233.113 639.166 232.909V229.873C639.166 229.669 639.323 229.506 639.517 229.506H644.489C644.683 229.506 644.839 229.337 644.839 229.133C644.837 228.929 644.681 228.766 644.487 228.766Z" fill="#FAA24A"/>
<path opacity="0.1" d="M639.515 219.173H644.487C644.681 219.173 644.837 219.008 644.837 218.804C644.837 218.597 644.681 218.435 644.487 218.435H633.093C632.899 218.435 632.738 218.597 632.738 218.804C632.738 219.008 632.899 219.173 633.093 219.173H638.114C638.308 219.173 638.465 219.338 638.465 219.542V223.231C638.465 223.435 638.308 223.6 638.114 223.6H633.093C632.899 223.6 632.738 223.763 632.738 223.967C632.738 224.173 632.899 224.339 633.093 224.339H644.487C644.681 224.339 644.837 224.173 644.837 223.967C644.837 223.763 644.681 223.6 644.487 223.6H639.515C639.321 223.6 639.164 223.435 639.164 223.231V219.542C639.164 219.338 639.321 219.173 639.515 219.173Z" fill="#FAA24A"/>
<path opacity="0.1" d="M639.515 208.844H644.487C644.681 208.844 644.838 208.677 644.838 208.472C644.838 208.268 644.681 208.103 644.487 208.103H631.31C631.116 208.103 630.96 208.268 630.96 208.472C630.96 208.677 631.116 208.844 631.31 208.844H638.112C638.306 208.844 638.463 209.007 638.463 209.211V212.902C638.463 213.106 638.306 213.269 638.112 213.269H633.091C632.897 213.269 632.736 213.434 632.736 213.64C632.736 213.844 632.897 214.009 633.091 214.009H644.485C644.679 214.009 644.836 213.844 644.836 213.64C644.836 213.434 644.679 213.269 644.485 213.269H639.513C639.319 213.269 639.162 213.106 639.162 212.902V209.211C639.164 209.007 639.321 208.844 639.515 208.844Z" fill="#FAA24A"/>
<path opacity="0.1" d="M644.487 202.938H639.515C639.321 202.938 639.164 202.775 639.164 202.569V198.882C639.164 198.678 639.321 198.513 639.515 198.513H644.487C644.681 198.513 644.838 198.348 644.838 198.143C644.838 197.941 644.681 197.772 644.487 197.772H591.441C591.247 197.772 591.094 197.941 591.094 198.143C591.094 198.348 591.247 198.513 591.441 198.513H596.412C596.606 198.513 596.763 198.678 596.763 198.882V202.569C596.763 202.775 596.606 202.938 596.412 202.938H591.441C591.247 202.938 591.094 203.103 591.094 203.307C591.094 203.511 591.247 203.678 591.441 203.678H604.617C604.811 203.678 604.968 203.511 604.968 203.307C604.968 203.103 604.811 202.938 604.617 202.938H597.815C597.621 202.938 597.465 202.775 597.465 202.569V198.882C597.465 198.678 597.621 198.513 597.815 198.513H638.112C638.306 198.513 638.463 198.678 638.463 198.882V202.569C638.463 202.775 638.306 202.938 638.112 202.938H631.31C631.116 202.938 630.96 203.103 630.96 203.307C630.96 203.511 631.116 203.678 631.31 203.678H644.487C644.681 203.678 644.838 203.511 644.838 203.307C644.838 203.103 644.681 202.938 644.487 202.938Z" fill="#FAA24A"/>
<g opacity="0.1">
<path d="M593.689 193.918H583.814V195.581H593.689V193.918Z" fill="#FAA24A"/>
<path d="M638.805 193.918H606.8V195.581H638.805V193.918Z" fill="#FAA24A"/>
<path d="M642.327 193.918V195.581H645.459L644.289 193.918H642.327Z" fill="#FAA24A"/>
<path d="M598.009 193.918H595.119V195.581H598.009H598.251H603.158V193.918H598.251H598.009Z" fill="#FAA24A"/>
</g>
<path d="M604.815 210.761C604.815 204.067 610.354 198.636 617.765 198.636C625.175 198.636 630.71 204.067 630.71 210.761H633.59C633.59 202.039 627.409 195.711 617.763 195.711C608.112 195.711 601.698 202.039 601.698 210.761H604.815Z" fill="#FAA24A"/>
<path d="M591.393 232.564H591.389V231.982H591.494V231.965C591.494 231.697 591.325 231.48 591.096 231.413V200.56H590.822V200.523V200.417C591.071 200.395 591.354 200.347 591.333 200.204C591.309 199.957 590.97 199.581 591.119 199.518C591.441 199.381 591.288 199.164 591.288 199.164C591.288 199.164 591.152 198.259 591.321 198.254C591.515 198.248 591.769 197.399 591.769 197.399H591.985V195.679H586.51V197.399H586.729C586.729 197.399 586.987 198.248 587.18 198.254C587.345 198.259 587.213 199.164 587.213 199.164C587.213 199.164 587.057 199.383 587.383 199.518C587.531 199.581 587.189 199.957 587.166 200.204C587.15 200.347 587.44 200.399 587.686 200.417V200.523V200.56H587.407V224.337L587.641 226.838L587.407 228.395L587.641 229.335L587.874 230.119L587.405 231.413C587.176 231.48 587.007 231.697 587.007 231.965V231.982H587.112V232.564H587.108C586.745 232.564 586.456 232.881 586.456 233.276H587.407H591.098H592.053C592.049 232.881 591.754 232.564 591.393 232.564Z" fill="#FAA24A"/>
<path d="M602.335 195.147H595.587V196.81H602.335V195.147Z" fill="#FAA24A"/>
<path d="M601.636 196.376H596.289V201.062H601.636V196.376Z" fill="#FAA24A"/>
<path d="M640.427 195.147H633.681V196.81H640.427V195.147Z" fill="#FAA24A"/>
<path d="M639.725 196.376H634.382V201.062H639.725V196.376Z" fill="#FAA24A"/>
<path d="M648.411 232.564H648.407V231.982H648.512V231.965C648.512 231.697 648.338 231.48 648.114 231.413V200.56H647.839V200.523V200.417C648.085 200.395 648.367 200.347 648.355 200.204C648.334 199.957 647.988 199.581 648.14 199.518C648.462 199.381 648.301 199.164 648.301 199.164C648.301 199.164 648.171 198.259 648.338 198.254C648.532 198.248 648.79 197.399 648.79 197.399H649.003V195.679H643.532V197.399H643.748C643.748 197.399 644.002 198.248 644.196 198.254C644.361 198.259 644.233 199.164 644.233 199.164C644.233 199.164 644.076 199.383 644.398 199.518C644.547 199.581 644.208 199.957 644.181 200.204C644.169 200.347 644.456 200.399 644.705 200.417V200.523V200.56H644.423V231.413C644.198 231.48 644.025 231.697 644.025 231.965V231.982H644.134V232.564H644.126C643.767 232.564 643.474 232.881 643.474 233.276H644.425H648.116H649.067C649.065 232.881 648.77 232.564 648.411 232.564Z" fill="#FAA24A"/>
<path d="M600.351 192.444H589.25L589.473 192.326C590.867 191.601 592.398 191.223 593.949 191.223H597.314L600.351 192.444Z" fill="#FAA24A"/>
<path d="M614.412 192.444H607.154C606.513 192.444 605.648 191.896 605.648 191.225H614.412V192.444Z" fill="#FAA24A"/>
<path d="M631.141 192.444H622.378V191.225H629.982C630.621 191.225 631.141 191.77 631.141 192.444Z" fill="#FAA24A"/>
<path d="M644.809 192.543H636.045V191.321H641.473C642.581 191.321 643.658 191.681 644.555 192.352L644.809 192.543Z" fill="#FAA24A"/>
<path d="M593.689 192.444H583.814V194.105H593.689V192.444Z" fill="#FAA24A"/>
<path d="M606.8 194.105H638.805V192.444H618.99L617.414 192.939L616.188 192.444H606.8V194.105Z" fill="#FAA24A"/>
<path d="M645.456 192.444H642.327V194.105H645.456V192.444Z" fill="#FAA24A"/>
<path d="M598.009 192.444H595.119V194.105H598.009H598.251H603.158V192.444H598.251H598.009Z" fill="#FAA24A"/>
<path d="M593.689 191.955H583.814V193.121H593.689V191.955Z" fill="#FAA24A"/>
<path d="M606.8 193.121H638.805V191.955H618.99L617.414 192.298L616.188 191.955H606.8V193.121Z" fill="#FAA24A"/>
<path d="M645.456 191.955H642.327V193.121H645.456V191.955Z" fill="#FAA24A"/>
<path d="M598.009 191.955H595.119V193.121H598.009H598.251H603.158V191.955H598.251H598.009Z" fill="#FAA24A"/>
<path d="M604.999 232.848H604.995V232.501H605.075V232.494C605.075 232.331 604.945 232.201 604.778 232.162V213.686H604.576V213.662V213.599C604.757 213.586 604.97 213.56 604.959 213.471C604.939 213.326 604.685 213.098 604.799 213.061C605.04 212.98 604.924 212.848 604.924 212.848C604.924 212.848 604.823 212.307 604.949 212.303C605.094 212.299 605.283 211.793 605.283 211.793H605.444V210.761H601.36V211.793H601.52C601.52 211.793 601.714 212.299 601.859 212.303C601.981 212.307 601.884 212.848 601.884 212.848C601.884 212.848 601.766 212.98 602.009 213.061C602.123 213.098 601.865 213.323 601.848 213.471C601.836 213.56 602.055 213.588 602.24 213.599V213.662V213.686H602.03V232.162C601.857 232.201 601.731 232.331 601.731 232.494V232.501H601.807V232.848C601.537 232.848 601.316 233.039 601.316 233.276H602.03H604.782H605.492C605.488 233.037 605.269 232.848 604.999 232.848Z" fill="#FAA24A"/>
<path d="M633.745 232.848V232.501H633.817V232.494C633.817 232.331 633.695 232.201 633.518 232.162V213.686H633.32V213.662V213.599C633.505 213.586 633.714 213.56 633.704 213.471C633.683 213.326 633.425 213.098 633.543 213.061C633.78 212.98 633.668 212.848 633.668 212.848C633.668 212.848 633.567 212.307 633.689 212.303C633.838 212.299 634.027 211.793 634.027 211.793H634.192V210.761H630.099V211.793H630.264C630.264 211.793 630.454 212.299 630.599 212.303C630.725 212.307 630.623 212.848 630.623 212.848C630.623 212.848 630.506 212.98 630.749 213.061C630.863 213.098 630.609 213.323 630.588 213.471C630.576 213.56 630.795 213.588 630.978 213.599V213.662V213.686H630.768V232.162C630.599 232.201 630.469 232.331 630.469 232.494V232.501H630.545V232.848C630.275 232.848 630.054 233.039 630.054 233.276H630.768H633.52H634.238C634.236 233.037 634.011 232.848 633.745 232.848Z" fill="#FAA24A"/>
<path d="M661.201 221.173C657.76 221.173 654.649 222.556 652.357 224.832C650.074 222.556 646.958 221.173 643.521 221.173C640.136 221.173 637.074 222.523 634.799 224.725C632.521 222.523 629.456 221.173 626.066 221.173C619.238 221.173 613.672 226.664 613.35 233.578H630.797H638.799H648.477H656.242H673.926C673.598 226.664 668.038 221.173 661.201 221.173Z" fill="#A16529"/>
<path d="M679.884 226.256C677.918 226.256 676.144 227.057 674.832 228.393C673.526 227.057 671.762 226.256 669.796 226.256C667.869 226.256 666.118 227.042 664.816 228.338C663.51 227.042 661.767 226.256 659.844 226.256C655.939 226.256 652.772 229.478 652.58 233.528H662.532H667.11H672.622H677.058H687.148C686.956 229.48 683.781 226.256 679.884 226.256Z" fill="#131313"/>
<path d="M824.32 225.822C822.358 225.822 820.584 226.619 819.271 227.956C817.966 226.619 816.202 225.822 814.24 225.822C812.305 225.822 810.553 226.603 809.256 227.897C807.954 226.603 806.206 225.822 804.28 225.822C800.378 225.822 797.208 229.042 797.018 233.089H806.97H811.543H817.064H821.493H831.586C831.396 229.044 828.217 225.822 824.32 225.822Z" fill="#131313"/>
<path d="M773.607 193.382C773.607 193.382 774.055 217.002 775.323 234.646L769.642 234.446L772.173 193.323L773.607 193.382Z" fill="#131313"/>
<path d="M794.515 214.155C794.515 214.155 793.432 199.103 779.917 196.398C778.991 196.207 794.012 193.644 799.825 196.059C801.331 196.693 794.579 181.452 778.983 189.625C776.21 191.078 784.951 180.684 784.951 180.684C784.951 180.684 774.155 181.361 773.105 190.107C772.936 191.59 767.859 176.182 752.717 187.964C752.467 188.164 767.702 192.205 767.407 192.737C767.108 193.256 749.131 188.761 747.844 203.607C747.823 203.824 762.834 198.869 767.434 199.255C767.828 199.294 753.154 205.411 760.044 221.203C760.416 222.004 769.891 215.414 771.669 205.758C772.495 201.181 772.629 198.161 772.629 198.161C772.629 198.161 778.207 210.679 794.515 214.155Z" fill="#131313"/>
<path d="M763.791 226.256C761.829 226.256 760.057 227.057 758.747 228.393C757.437 227.057 755.673 226.256 753.707 226.256C751.778 226.256 750.024 227.042 748.727 228.338C747.421 227.042 745.678 226.256 743.751 226.256C739.85 226.256 736.683 229.478 736.489 233.528H746.441H751.019H756.531H760.967H771.057C770.867 229.48 767.688 226.256 763.791 226.256Z" fill="#131313"/>
<path d="M579.1 208.449C579.1 208.449 577.464 221.574 576.931 234.522L580.571 235.373L580.457 209.107L579.1 208.449Z" fill="#131313"/>
<path d="M565.001 221.646C565.001 221.646 565.888 210.472 574.881 208.718C575.502 208.599 565.56 206.401 561.68 208.084C560.669 208.527 565.313 197.325 575.578 203.702C577.408 204.833 571.714 196.932 571.714 196.932C571.714 196.932 578.871 197.644 579.475 204.175C579.576 205.283 583.106 193.927 593.025 202.966C593.194 203.116 583.04 205.837 583.23 206.234C583.428 206.631 595.402 203.639 596.095 214.709C596.103 214.859 586.194 210.889 583.133 211.087C582.871 211.106 592.553 215.94 587.799 227.541C587.542 228.139 581.328 223.051 580.257 215.84C579.762 212.42 579.7 210.171 579.7 210.171C579.7 210.171 575.859 219.371 565.001 221.646Z" fill="#131313"/>
<path d="M196.252 218.954C192.244 218.954 188.617 220.567 185.945 223.225C183.284 220.567 179.655 218.954 175.642 218.954C171.702 218.954 168.129 220.534 165.476 223.094C162.825 220.532 159.252 218.954 155.303 218.954C147.34 218.954 140.858 225.359 140.48 233.415H160.816H170.138H181.421H190.473H211.081C210.703 225.359 204.223 218.954 196.252 218.954Z" fill="#FFBE7C"/>
<path d="M320.773 150.728H321.347V149.944H320.907L321.046 125.907L320.031 125.996C317.951 124.417 317.155 124.228 316.113 121.764L315.321 119.896L315.269 128.059L315.41 149.944H314.972V150.728H315.544C315.143 150.728 314.822 151.058 314.803 151.475H314.502V155.492H321.817V151.475H321.514C321.493 151.06 321.172 150.728 320.773 150.728Z" fill="#422508"/>
</g>
<defs>
<clipPath id="clip0_223_632">
<rect width="1133" height="233" fill="white" transform="translate(-1)"/>
</clipPath>
</defs>
</svg>
